HIERARCHY
ROOT Hips
{
	OFFSET -0.001795 -0.223333 0.028219
	CHANNELS 6 Xposition Yposition Zposition Zrotation Yrotation Xrotation 
	JOINT LeftUpLeg
	{
		OFFSET 0.069520 -0.091406 -0.006815
		CHANNELS 3 Zrotation Yrotation Xrotation
		JOINT LeftLeg
		{
			OFFSET 0.034277 -0.375199 -0.004496
			CHANNELS 3 Zrotation Yrotation Xrotation
			JOINT LeftFoot
			{
				OFFSET -0.013596 -0.397961 -0.043693
				CHANNELS 3 Zrotation Yrotation Xrotation
				JOINT LeftToe
				{
					OFFSET 0.026358 -0.055791 0.119288
					CHANNELS 3 Zrotation Yrotation Xrotation
					End Site
					{
						OFFSET 0.000000 0.000000 0.000000
					}
				}
			}
		}
	}
	JOINT RightUpLeg
	{
		OFFSET -0.067670 -0.090522 -0.004320
		CHANNELS 3 Zrotation Yrotation Xrotation
		JOINT RightLeg
		{
			OFFSET -0.038290 -0.382569 -0.008850
			CHANNELS 3 Zrotation Yrotation Xrotation
			JOINT RightFoot
			{
				OFFSET 0.015774 -0.398415 -0.042312
				CHANNELS 3 Zrotation Yrotation Xrotation
				JOINT RightToe
				{
					OFFSET -0.025372 -0.048144 0.123348
					CHANNELS 3 Zrotation Yrotation Xrotation
					End Site
					{
						OFFSET 0.000000 0.000000 0.000000
					}
				}
			}
		}
	}
	JOINT Spine
	{
		OFFSET -0.002533 0.108963 -0.026696
		CHANNELS 3 Zrotation Yrotation Xrotation
		JOINT Spine1
		{
			OFFSET 0.005487 0.135180 0.001092
			CHANNELS 3 Zrotation Yrotation Xrotation
			JOINT Spine2
			{
				OFFSET 0.001457 0.052922 0.025425
				CHANNELS 3 Zrotation Yrotation Xrotation
				JOINT Neck
				{
					OFFSET -0.002778 0.213870 -0.042857
					CHANNELS 3 Zrotation Yrotation Xrotation
					JOINT Head
					{
						OFFSET 0.005152 0.064970 0.051349
						CHANNELS 3 Zrotation Yrotation Xrotation
						End Site
						{
							OFFSET 0.000000 0.000000 0.000000
						}
					}
				}
				JOINT LeftShoulder
				{
					OFFSET 0.078845 0.121749 -0.034090
					CHANNELS 3 Zrotation Yrotation Xrotation
					JOINT LeftArm
					{
						OFFSET 0.090977 0.030469 -0.008868
						CHANNELS 3 Zrotation Yrotation Xrotation
						JOINT LeftForeArm
						{
							OFFSET 0.259612 -0.012772 -0.027456
							CHANNELS 3 Zrotation Yrotation Xrotation
							JOINT LeftHand
							{
								OFFSET 0.249234 0.008986 -0.001171
								CHANNELS 3 Zrotation Yrotation Xrotation
								End Site
								{
									OFFSET 0.000000 0.000000 0.000000
								}
							}
						}
					}
				}
				JOINT RightShoulder
				{
					OFFSET -0.081759 0.118833 -0.038615
					CHANNELS 3 Zrotation Yrotation Xrotation
					JOINT RightArm
					{
						OFFSET -0.096012 0.032551 -0.009143
						CHANNELS 3 Zrotation Yrotation Xrotation
						JOINT RightForeArm
						{
							OFFSET -0.253742 -0.013329 -0.021401
							CHANNELS 3 Zrotation Yrotation Xrotation
							JOINT RightHand
							{
								OFFSET -0.255298 0.007772 -0.005559
								CHANNELS 3 Zrotation Yrotation Xrotation
								End Site
								{
									OFFSET 0.000000 0.000000 0.000000
								}
							}
						}
					}
				}
			}
		}
	}
}
MOTION
Frames: 15
Frame Time: 0.050000
-0.013822 0.940982 -0.027763 -0.914743 -2.287428 5.909119 10.230694 -0.220894 -3.903103 0.124355 0.203428 -6.086761 -0.922696 2.003046 9.755599 0.000000 0.000000 0.000000 -5.721301 0.742093 -9.716666 -2.417147 0.188749 -0.851268 0.157070 -5.975211 14.964526 0.000000 0.000000 0.000000 5.581600 -0.043680 -1.261544 -1.682307 0.802768 -3.175371 -4.903505 4.428501 -1.653403 8.083944 -4.493332 -8.751882 0.000000 0.000000 0.000000 -16.892914 -2.102734 -1.713464 -56.748566 -9.932147 -1.307042 5.680165 -13.654826 -0.297870 0.000000 0.000000 0.000000 12.735817 -5.929347 -3.443214 65.397602 3.398502 -3.373064 -2.748860 21.543750 0.380417 0.000000 0.000000 0.000000 
-0.013918 0.940976 -0.028921 -1.011550 -2.361705 5.990033 10.415845 -0.217393 -4.282723 0.002586 0.195006 -5.657423 -0.853460 2.081844 9.662690 0.000000 0.000000 0.000000 -5.672758 0.765893 -10.081911 -2.305869 0.198242 -0.516581 0.180921 -5.945780 14.966499 0.000000 0.000000 0.000000 5.710797 -0.056670 -1.154458 -1.789394 0.848849 -3.144698 -4.616993 4.234871 -1.482564 8.062112 -4.491286 -8.784565 0.000000 0.000000 0.000000 -16.542104 -2.863187 -1.215196 -57.005528 -10.958976 -0.837898 6.519659 -13.776482 -0.392336 0.000000 0.000000 0.000000 12.359794 -5.916728 -3.434494 65.729812 3.811224 -3.181305 -3.623492 23.012635 0.243532 0.000000 0.000000 0.000000 
-0.014056 0.940827 -0.030176 -1.036929 -2.605126 5.966912 10.415192 -0.209189 -4.584209 0.054151 0.171716 -5.102588 -0.701634 2.267085 9.503751 0.000000 0.000000 0.000000 -5.797487 0.782938 -10.443357 -2.021733 0.196453 -0.067697 0.267367 -5.799113 14.868896 0.000000 0.000000 0.000000 5.721203 -0.077011 -0.921435 -1.797904 0.850671 -3.144688 -4.470775 4.189326 -1.473374 8.124879 -4.569590 -8.660787 0.000000 0.000000 0.000000 -16.236686 -3.312868 -0.906092 -57.137395 -11.765735 -0.455962 7.396989 -14.034078 -0.503268 0.000000 0.000000 0.000000 12.128168 -5.763355 -3.364673 65.807450 4.212464 -2.968136 -4.379685 24.350774 0.104000 0.000000 0.000000 0.000000 
-0.014223 0.940609 -0.031212 -1.134037 -2.349273 5.948327 10.738043 -0.206088 -5.230360 -0.263591 0.161562 -4.160238 -0.751517 2.101423 9.201411 0.000000 0.000000 0.000000 -5.784901 0.802317 -10.875171 -1.826215 0.222791 0.725733 0.095947 -6.015373 14.714466 0.000000 0.000000 0.000000 5.663520 -0.095613 -0.717362 -1.773332 0.841701 -3.103950 -4.273234 3.951094 -1.412969 8.023887 -4.549625 -8.460239 0.000000 0.000000 0.000000 -15.552474 -4.002473 -0.448841 -57.688430 -12.797644 0.024728 8.300570 -14.547918 -0.634742 0.000000 0.000000 0.000000 11.822535 -5.864467 -3.395928 66.340803 4.113242 -3.055114 -5.363549 26.072136 -0.098648 0.000000 0.000000 0.000000 
-0.014513 0.940267 -0.032021 -1.147567 -2.422693 5.841004 10.911134 -0.195609 -5.312371 -0.507750 0.170929 -3.863153 -0.700085 2.139557 9.068535 0.000000 0.000000 0.000000 -5.978793 0.801079 -11.045783 -1.418146 0.200215 1.116257 0.092255 -5.979034 14.548071 0.000000 0.000000 0.000000 5.648669 -0.118084 -0.444956 -1.768058 0.838966 -3.099771 -4.120334 3.928355 -1.508337 7.820609 -4.451564 -8.263133 0.000000 0.000000 0.000000 -15.213007 -4.107680 -0.340828 -57.905759 -13.487176 0.367829 8.766411 -15.645437 -0.750099 0.000000 0.000000 0.000000 11.441673 -5.701032 -3.288891 66.658403 3.558046 -3.379354 -5.444924 27.852669 -0.133874 0.000000 0.000000 0.000000 
-0.014874 0.939980 -0.032594 -1.170608 -2.283123 5.752873 11.179978 -0.188199 -5.523588 -0.872157 0.188128 -3.453378 -0.742886 2.027845 8.922677 0.000000 0.000000 0.000000 -6.197391 0.800616 -11.340626 -0.934980 0.181348 1.801244 -0.027944 -6.110085 14.354253 0.000000 0.000000 0.000000 5.453195 -0.147645 -0.056294 -1.790352 0.850154 -3.324274 -4.323407 4.289332 -1.124175 7.868450 -4.468210 -8.287135 0.000000 0.000000 0.000000 -13.705427 -4.516015 -0.055440 -58.979141 -14.005332 0.545624 10.230308 -17.842221 -1.120737 0.000000 0.000000 0.000000 11.183213 -6.277096 -3.461235 67.772483 2.020841 -4.305090 -6.061315 32.058830 -0.257376 0.000000 0.000000 0.000000 
-0.015394 0.939548 -0.033083 -1.311030 -2.094262 5.764825 11.239600 -0.191706 -5.684795 -0.611795 0.162750 -3.321078 -0.790287 1.913614 8.785151 0.000000 0.000000 0.000000 -6.176231 0.815521 -11.682388 -0.634951 0.175285 2.410585 -0.169834 -6.279880 14.172094 0.000000 0.000000 0.000000 5.456619 -0.163733 0.110773 -1.889225 0.894382 -2.939346 -4.328616 4.264085 -1.250545 7.409743 -4.178637 -8.112198 0.000000 0.000000 0.000000 -12.932195 -3.356656 -0.514285 -59.728647 -14.314130 0.686550 11.235769 -20.996142 -1.543907 0.000000 0.000000 0.000000 10.674251 -6.957548 -3.706459 68.976148 0.012774 -5.529462 -5.519157 37.979041 -0.117855 0.000000 0.000000 0.000000 
-0.015988 0.939229 -0.033425 -1.454359 -1.481469 5.671134 11.464330 -0.197726 -6.130665 -0.590541 0.141892 -2.687495 -1.016366 1.477413 8.528812 0.000000 0.000000 0.000000 -6.418614 0.807180 -12.103821 0.165597 0.121519 3.532686 -0.524972 -6.770830 13.981194 0.000000 0.000000 0.000000 5.394442 -0.196886 0.502739 -1.881973 0.895996 -3.048389 -4.591935 4.629682 -0.859130 7.124087 -3.902769 -8.389612 0.000000 0.000000 0.000000 -11.175205 -2.945990 -0.569249 -60.732365 -14.448915 0.616434 13.283713 -25.666582 -2.464531 0.000000 0.000000 0.000000 9.995292 -8.726372 -4.344009 70.423508 -2.643792 -7.156596 -5.890583 45.895797 -0.118813 0.000000 0.000000 0.000000 
-0.016652 0.939118 -0.033660 -1.572190 -0.400255 5.815476 11.366643 -0.235312 -6.672664 -0.001060 0.087429 -2.580591 -1.478003 0.744757 8.502888 0.000000 0.000000 0.000000 -6.307535 0.798192 -12.182946 0.297752 0.109370 3.764054 -1.050759 -7.574515 14.025585 0.000000 0.000000 0.000000 5.157184 -0.213233 0.717954 -1.762502 0.852462 -3.199316 -4.962730 4.226447 -0.312532 6.472027 -3.434062 -8.488148 0.000000 0.000000 0.000000 -10.616447 -0.224173 -1.678965 -61.478672 -13.565387 0.029808 17.494086 -34.907669 -4.877123 0.000000 0.000000 0.000000 9.245641 -10.854775 -5.170986 71.571671 -5.861033 -9.227931 -5.128703 55.922220 0.371313 0.000000 0.000000 0.000000 
-0.017278 0.939076 -0.033865 -1.827554 0.316847 5.973827 11.582178 -0.249384 -7.360253 0.263030 0.046364 -2.056020 -1.745286 0.279159 8.373417 0.000000 0.000000 0.000000 -6.218859 0.806986 -12.516244 0.728100 0.063975 4.268728 -1.407293 -8.131340 14.099151 0.000000 0.000000 0.000000 5.138092 -0.257041 1.177305 -1.924084 0.934752 -4.149172 -5.697013 5.071083 0.796010 6.871351 -3.606439 -8.724733 0.000000 0.000000 0.000000 -8.765487 1.317679 -2.124030 -62.745402 -12.859536 -0.706091 23.306239 -45.728835 -9.413110 0.000000 0.000000 0.000000 8.475282 -13.890886 -6.300956 72.669229 -9.352099 -11.306482 -1.227177 67.484006 3.555962 0.000000 0.000000 0.000000 
-0.017552 0.939036 -0.034285 -2.021899 1.210412 6.385313 11.387795 -0.288571 -8.348703 1.107873 -0.045614 -1.616186 -2.081372 -0.274264 8.300414 0.000000 0.000000 0.000000 -6.045894 0.817293 -12.737901 0.838705 0.038881 4.110573 -1.826132 -8.806796 14.327764 0.000000 0.000000 0.000000 5.060327 -0.264493 1.188348 -2.508527 1.190561 -4.210967 -6.142598 4.693557 1.232177 6.220897 -3.187697 -8.539818 0.000000 0.000000 0.000000 -7.573011 4.134360 -3.007300 -65.047395 -13.502457 -0.566233 34.981084 -55.031955 -18.160131 0.000000 0.000000 0.000000 6.955914 -16.302446 -7.081774 74.849832 -12.487946 -13.575398 9.481997 78.530659 13.091523 0.000000 0.000000 0.000000 
-0.017302 0.939415 -0.034942 -2.164812 1.222170 6.399404 11.193831 -0.293818 -8.908190 1.692974 -0.141722 -0.738215 -2.040719 -0.264366 8.150413 0.000000 0.000000 0.000000 -5.961093 0.830959 -12.886118 0.937664 0.029119 4.258683 -1.804173 -8.807804 14.515896 0.000000 0.000000 0.000000 4.886125 -0.335848 2.112640 -2.879734 1.347339 -5.023074 -6.625123 5.676529 1.984394 6.302912 -3.185121 -8.567189 0.000000 0.000000 0.000000 -6.398819 4.837829 -3.083391 -67.411265 -14.369200 -0.436396 55.220285 -60.770791 -33.914203 0.000000 0.000000 0.000000 5.527307 -17.990219 -7.510243 76.764821 -14.906759 -15.210776 80.051659 86.658554 83.520437 0.000000 0.000000 0.000000 
-0.016765 0.940216 -0.035701 -2.351556 1.130245 6.629139 11.193895 -0.290188 -9.873053 1.979954 -0.233416 0.485105 -1.945328 -0.137149 8.070286 0.000000 0.000000 0.000000 -5.641812 0.874197 -13.152804 0.660185 0.066153 4.150584 -1.706094 -8.733111 14.901089 0.000000 0.000000 0.000000 4.727554 -0.384841 2.752567 -3.434438 1.576859 -4.840761 -7.111929 5.958572 1.857988 5.503275 -2.715261 -7.989617 0.000000 0.000000 0.000000 -4.840449 6.764442 -3.425605 -70.841007 -16.094137 0.373778 74.366311 -63.497660 -50.167258 0.000000 0.000000 0.000000 3.920578 -18.354505 -7.360357 78.292910 -15.678216 -15.820784 150.540466 82.846257 154.281695 0.000000 0.000000 0.000000 
-0.016272 0.941437 -0.036301 -2.416644 0.735385 6.573792 10.830783 -0.293286 -10.270576 2.626223 -0.359985 1.427194 -1.782077 0.161413 8.156483 0.000000 0.000000 0.000000 -5.351143 0.927530 -13.594871 0.215806 0.156250 4.837044 -1.472470 -8.448295 15.187093 0.000000 0.000000 0.000000 4.429119 -0.462696 3.944765 -4.152149 1.868911 -5.096310 -7.408872 6.439896 2.279528 4.948496 -2.468093 -7.155639 0.000000 0.000000 0.000000 -3.629652 6.920822 -3.178724 -72.825667 -17.724437 1.221243 88.273872 -62.284330 -60.589811 0.000000 0.000000 0.000000 2.786954 -18.267340 -7.127104 78.328068 -15.849613 -15.773355 160.316776 79.212508 164.416279 0.000000 0.000000 0.000000 
-0.016068 0.941960 -0.036993 -2.730211 0.743819 6.731458 11.027557 -0.283198 -10.767015 2.865978 -0.417606 1.920603 -1.764817 0.201785 8.179710 0.000000 0.000000 0.000000 -4.713037 1.004840 -13.993602 -0.331530 0.250156 5.148837 -1.443055 -8.459176 15.446839 0.000000 0.000000 0.000000 4.180406 -0.519195 4.835602 -4.616304 2.065185 -4.859954 -7.849339 6.412689 2.909945 4.346274 -2.046936 -7.119370 0.000000 0.000000 0.000000 -2.163702 7.345030 -2.944784 -74.875945 -20.213360 2.779946 93.535081 -60.935355 -63.651494 0.000000 0.000000 0.000000 1.672845 -17.807284 -6.761176 77.941863 -15.969636 -15.704252 160.055532 77.813569 163.733809 0.000000 0.000000 0.000000 
